<?xml version="1.0" encoding="UTF-8"?>
<svg id="Capa_1" data-name="Capa 1" xmlns="http://www.w3.org/2000/svg" viewBox="0 0 46.94 40.87">
  <defs>
    <style>
      .cls-1 {
        letter-spacing: .02em;
      }

      .cls-2 {
        letter-spacing: 0em;
      }

      .cls-3 {
        stroke-width: 0px;
      }

      .cls-3, .cls-4 {
        fill: #fff;
      }

      .cls-5 {
        letter-spacing: .01em;
      }

      .cls-6 {
        letter-spacing: 0em;
      }

      .cls-4 {
        font-family: Montserrat-SemiBold, Montserrat;
        font-size: 3.73px;
        font-weight: 600;
      }
    </style>
  </defs>
  <path class="cls-3" d="M5.55,35.76v-4.36s-2.17,3.64-2.17,3.64h-.39l-2.16-3.61v4.34h-.82v-5.99h.7l2.5,4.21,2.46-4.21h.7v5.99s-.81,0-.81,0Z"/>
  <path class="cls-3" d="M8.05,33.69v-2.78h.83v2.76c0,.95.46,1.45,1.31,1.45s1.31-.49,1.31-1.45v-2.76h.81v2.78c0,1.36-.8,2.15-2.13,2.15s-2.13-.79-2.13-2.15ZM13.05,35.11l.51-.52c.25.33.57.53.98.53.53,0,.78-.31.78-.94v-2.59h-1.75v-.68h2.58v3.22c0,1.15-.56,1.71-1.6,1.71-.64,0-1.19-.26-1.5-.72ZM21.4,35.07v.69h-3.64v-4.86h3.55v.68h-2.72v1.37h2.42v.68h-2.42v1.44h2.81ZM25.88,35.76l-1.04-1.45c-.07,0-.15,0-.22,0h-1.15v1.45h-.83v-4.86h1.98c1.27,0,2.08.62,2.08,1.71,0,.75-.39,1.28-1.07,1.54l1.15,1.61h-.9ZM25.86,32.62c0-.66-.44-1.03-1.29-1.03h-1.1v2.05h1.1c.85,0,1.29-.37,1.29-1.03Z"/>
  <g>
    <path class="cls-3" d="M32.54,34.65v1.11h-4.64v-5.99h4.53v1.11h-3.15v1.3h2.78v1.08h-2.78v1.39h3.26Z"/>
    <path class="cls-3" d="M34.24,35.67c-.44-.13-.8-.3-1.06-.5l.47-1.04c.26.19.56.34.92.45.35.11.71.17,1.06.17.39,0,.68-.06.87-.18.19-.12.28-.27.28-.47,0-.14-.06-.26-.17-.35s-.25-.17-.43-.23c-.17-.06-.41-.12-.71-.19-.46-.11-.83-.22-1.12-.33-.29-.11-.54-.28-.75-.52s-.31-.56-.31-.96c0-.35.09-.66.28-.95.19-.28.47-.51.85-.67.38-.17.84-.25,1.39-.25.38,0,.76.05,1.12.14.36.09.68.22.96.39l-.43,1.05c-.55-.31-1.11-.47-1.66-.47-.39,0-.67.06-.86.19-.19.13-.28.29-.28.5s.11.36.32.46c.21.1.54.2.98.3.46.11.83.22,1.12.32.29.11.54.28.75.51.21.23.31.55.31.95,0,.34-.1.65-.29.94-.19.28-.48.51-.86.67-.38.17-.85.25-1.39.25-.47,0-.93-.06-1.37-.19Z"/>
  </g>
  <text class="cls-4" transform="translate(.05 39.88)"><tspan class="cls-1" x="0" y="0">TRANS</tspan><tspan class="cls-6" x="13.43" y="0">F</tspan><tspan class="cls-5" x="15.83" y="0">ORM</tspan><tspan class="cls-2" x="25.44" y="0">A</tspan><tspan class="cls-1" x="28.26" y="0">CIÓ</tspan><tspan x="35.48" y="0">N</tspan></text>
  <path class="cls-3" d="M27.85,4.08c.87,3.67,4.83,5.74,6.46,9.04.35.69.49,1.47.59,2.23.21,1.71,0,3.45-.49,5.1-.17.55-.34,1.1-.61,1.62-.72,1.48-2.09,2.43-3.75,2.48-.89.03-1.91-.42-2.3-1.3,0-.01,0,0-.01-.05,0-.04,0-.07,0-.1.08-.31.61-.43.87-.51.2-.05.4-.1.61-.1.23,0,.41.06.58.08.16.02.29.02.43-.05.53-.25,1.13-.35,1.69-.43.27-.04.57-.06.82-.14-.04.02-.06.08-.06.13-.01.01.05.14.06.13.02.02.02.01.03.02-.01,0-.03-.01-.05-.02-.34-.09-.72-.15-1.08-.2-.58-.08-1.16-.17-1.74-.19-.39.15-.8.55-1.19.83-.22.16-.41.36-.7.4-.8,0-.37-1.26-.16-1.66.23-.45.55-.94,1.09-1.06.32-.03.62.07.92.07.08,0,.15,0,.23,0,.12-.04.23-.18.35-.29.11-.12.34-.26.55-.21l.14.02c.29.05.56.11.85.2.19.06.54.16.47.45-.02.08-.08.14-.12.2-.24.34-.64.63-1.07.66-.34.02-.73.03-.97-.24-.66-.82-.43-2.84-.06-3.77.17-.44.51-1,1.06-.95.41.03.81.27.93.68.1.34.07.75-.19,1-.57.49-1.45.2-2.08.13-.12-.01-.27-.04-.37,0-.22.22-.41.54-.73.67-.32.13-.74.04-.94-.25-.26-.41-.23-.86-.08-1.29.03-.09.11-.19.15-.27.14-.23.25-.47.34-.73.37-1.03.48-2.15.34-3.23-.09-.69-.24-1.43-.77-1.92-.76-.71-1.98-.93-2.96-.65-.14.04-.32.17-.45.24-.1.08-.21.15-.31.24-.46.41-.66,1-.52,1.59.02.11.07.25.11.35.14.35.29.69.41,1.05.1.28.19.75-.21.85-.28.08-.58.09-.87.02-.14-.04-.27-.08-.41-.17-.18-.11-.08-.4.13-.37.82.1,1.68.09,2.5-.05.83-.14,1.67-.35,2.47-.6.22-.06.33.24.13.34-.03,0-.05.02-.08.03-.58.2-1.21.39-1.79.59-.67.24-1.37.46-1.99.8-.05.03-.08.06-.12.09-.05.11-.09.26-.11.41-.09.78.04,1.59.17,2.36.12.78.44,1.53.77,2.25.81,1.74,1.85,3.4,3.11,4.85,1.38,1.56,3.51,3.26,5.67,2.24,1.47-.62,2.84-1.5,4.03-2.55,1.17-1.05,2.18-2.35,2.62-3.87.26-.96.61-2.71-.24-3.44-.2-.17-.48-.24-.76-.26-.12,0-.24-.02-.36.04-1,.63-1.04,3.68-1.01,4.82.18,5.64,2.48,14.16,8.88,15.35,0,0-.35.3-.35.3v-18.96c0-3.16.16-6.32.12-9.48-.03-2.66-.01-6.79,0-9.48l.18.18c-6.84,0-16.4-.09-23.14-.04,0,0-23.14.06-23.14.06l.21-.21c.04,7.05.08,21.24.13,28.29,0,.19-.15.34-.34.34-.19,0-.34-.15-.34-.34C.07,21.44.12,7.25.15.21.15.09.24,0,.35,0c13.4.07,33.04.09,46.27.02.1,0,.18.08.18.18,0,1.61.01,5.56.02,7.11-.04,2.31-.03,4.82.03,7.11.15,3.19.07,20.17.08,23.7,0,.18-.17.33-.35.3-.66-.12-1.31-.32-1.93-.6-5.29-2.49-7.21-9.95-7.37-15.33-.02-1.31.02-4.59,1.33-5.28.18-.09.4-.09.59-.08.37.02.75.13,1.04.37.84.73.75,1.98.6,2.97-.52,3.37-3.38,5.76-6.26,7.24-.6.29-1.21.6-1.87.7-4.01.64-8.05-6.16-8.99-9.46-.16-.73-.59-3.14.01-3.63.39-.26.84-.41,1.26-.58.61-.23,2.11-.72,2.74-.93l.14.33c-1.66.51-3.38.91-5.12.7l.14-.37c.17.1.39.15.59.15.12,0,.23-.02.35-.05.01,0,.03,0,.02,0,0,0,0,0,0,0,0,0,0,0,0,.01,0,.02,0-.01,0-.05-.06-.44-.3-.88-.45-1.3v.02c-.02-.06-.04-.1-.06-.15-.05-.12-.05-.19-.09-.3-.23-1.06.34-1.92,1.26-2.41.76-.42,1.86-.3,2.64-.02,1.56.59,1.86,1.86,1.97,3.37.04.97-.08,1.94-.41,2.85-.12.32-.27.64-.46.93-.02.03-.03.05-.05.09-.17.42-.1,1.18.49,1,.26-.13.38-.38.6-.59.08-.08.2-.12.31-.12.56-.06,1.98.48,2.23-.15.08-.3-.02-.7-.35-.79,0,0-.11-.03-.11-.03-.06,0-.16-.03-.21-.01-.87.18-1.23,3.76-.45,4.1.6.12,1.03-.05,1.36-.57.01-.02-.02.02-.02.04-.02.05,0,.12.03.15-.32-.15-.8-.23-1.18-.3-.06,0-.1.03-.18.1-.16.15-.29.33-.54.39-.3.05-.63,0-.91-.04-.1-.01-.19-.02-.25-.02-.22.05-.37.2-.51.39-.21.27-.36.6-.46.93-.05.2-.1.39-.06.57,0,.02.01.03,0,.02,0,0,0,0-.02,0,0,0,0,0,0,0,0,0,.01,0,.03,0l.04-.02c.13-.07.29-.2.43-.3.29-.23.58-.47.91-.69.16-.1.36-.24.56-.23.79.04,1.56.16,2.34.29.21.04.44.07.66.15.02,0,.03.01.06.03.02.01.02.01.05.04.02,0,.08.13.07.16,0,.07-.02.13-.06.18-.13.13-.34.15-.49.18-.55.08-1.11.14-1.64.29-.23.06-.44.17-.65.25-.38.13-.8-.09-1.15-.05-.33.05-.69.13-.96.3,0,0-.02.02,0,0,0,0,.01-.02.02-.05,0-.02,0-.04,0-.07-.01-.04,0-.01,0-.01.02.06.06.13.11.2.65.9,1.85.96,2.84.64,1.43-.42,2.32-1.71,2.74-3.09.72-2.09.96-4.38.45-6.54-.25-1.08-.89-2-1.58-2.85-1.85-2.31-4.57-4.27-5.28-7.3-.03-.11.05-.23.16-.25.12-.03.23.05.25.16"/>
</svg>